<svg width="369" height="348" viewBox="0 0 369 348" fill="none" xmlns="http://www.w3.org/2000/svg">
<path d="M367.825 206.422C366.518 206.398 365.465 207.666 363.958 211.018C330.27 285.9 268.19 321.783 202.428 322.278C71.4801 323.254 40.6286 213.883 39.806 210.908L106.637 223.596C106.983 224.336 132.545 284.011 200.06 284.011C271.481 284.011 321.183 211.687 321.183 136.908C321.183 69.6138 293.222 31.1104 252.63 0.90271L70.719 86.3783C70.3582 86.5469 70.0583 86.8272 69.8617 87.1798C69.665 87.5324 69.5816 87.9394 69.6233 88.3431C69.6649 88.7469 69.8295 89.127 70.0937 89.4298C70.358 89.7326 70.7085 89.9426 71.0957 90.0303C171.861 113.721 188.959 187.202 184.192 228.901C183.477 235.126 187.506 234.087 191.373 222.407C205.103 180.984 195.232 120.679 140.61 86.7325C140.61 86.7325 241.713 35.3763 241.729 35.392C253.875 44.9392 293.66 72.1639 293.66 136.908C293.66 201.684 256.812 260.533 200.06 260.533C143.708 260.533 124.073 202.093 123.773 201.282L3.54985 174.687C3.1079 174.57 2.64479 174.563 2.19985 174.668C1.7549 174.773 1.34128 174.987 0.994125 175.29C0.646968 175.594 0.376532 175.979 0.205794 176.412C0.0350566 176.846 -0.030938 177.315 0.0134174 177.781C10.4536 270.891 83.8807 347.213 190.289 347.213C278.584 347.213 338.527 297.926 364.058 228.287C369.94 212.238 369.694 206.446 367.825 206.422Z" fill="#071F32" fill-opacity="0.04"/>
</svg>
